<?xml version="1.0" encoding="iso-8859-1"?>
<!-- Generator: Adobe Illustrator 16.0.0, SVG Export Plug-In . SVG Version: 6.00 Build 0)  -->
<!DOCTYPE svg PUBLIC "-//W3C//DTD SVG 1.1//EN" "http://www.w3.org/Graphics/SVG/1.1/DTD/svg11.dtd">
<svg version="1.1" id="Capa_1" xmlns="http://www.w3.org/2000/svg" xmlns:xlink="http://www.w3.org/1999/xlink" x="0px" y="0px"
	 width="287.863px" height="287.863px" viewBox="0 0 287.863 287.863" style="enable-background:new 0 0 287.863 287.863;"
	 xml:space="preserve">
<g>
	<path d="M282.734,275.926c6.732-2.448,6.732-12.853,0.612-14.688l0,0c4.896-13.464-27.54-41.004-34.884-49.571
		c-12.853-15.301-25.092-30.601-36.108-47.124c-10.403-15.912-12.239-22.033-0.611-37.333c21.42-26.928,47.124-50.796,64.26-80.784
		c3.672-6.732,13.464-40.392-5.508-33.66c0,0,0,0-0.612,0c-1.224-2.448-3.672-3.672-7.344-2.448
		C176.858,53.157,88.118,91.101,4.274,137.613c-4.284,2.448-6.12,9.792-1.836,12.853c49.572,39.168,110.772,54.468,166.465,82.62
		C197.055,247.773,248.463,287.554,282.734,275.926z M171.963,125.373c-0.612-0.612-0.612-0.612-1.224-1.224l0,0
		c0.611-0.612,1.224-1.224,1.836-1.836c1.836-1.224,3.06-1.836,4.896-3.06c-1.224,1.836-2.448,3.06-3.672,4.896
		C173.187,124.761,172.575,125.373,171.963,125.373z"/>
</g>
<g>
</g>
<g>
</g>
<g>
</g>
<g>
</g>
<g>
</g>
<g>
</g>
<g>
</g>
<g>
</g>
<g>
</g>
<g>
</g>
<g>
</g>
<g>
</g>
<g>
</g>
<g>
</g>
<g>
</g>
</svg>
